<?xml version="1.0" encoding="UTF-8"?>
<!DOCTYPE svg PUBLIC "-//W3C//DTD SVG 1.1//EN" "http://www.w3.org/Graphics/SVG/1.1/DTD/svg11.dtd">
<!-- Creator: CorelDRAW X7 -->
<svg xmlns="http://www.w3.org/2000/svg" xml:space="preserve" width="11in" height="8.5in" version="1.1" style="shape-rendering:geometricPrecision; text-rendering:geometricPrecision; image-rendering:optimizeQuality; fill-rule:evenodd; clip-rule:evenodd"
viewBox="0 0 11000 8500"
 xmlns:xlink="http://www.w3.org/1999/xlink">
 <defs>
  <style type="text/css">
   <![CDATA[
    .str2 {stroke:#373435;stroke-width:55.5551}
    .str0 {stroke:black;stroke-width:6.94094}
    .str1 {stroke:#373435;stroke-width:55.5551;stroke-linejoin:bevel}
    .fil2 {fill:none}
    .fil1 {fill:black}
    .fil0 {fill:#03919E}
   ]]>
  </style>
 </defs>
 <g id="Layer_x0020_1">
  <metadata id="CorelCorpID_0Corel-Layer"/>
  <path class="fil0 str0" d="M8500 4112c0,-2009 -1661,-3638 -3710,-3638 -2049,0 -3710,1629 -3710,3638 0,2009 1661,3638 3710,3638 2049,0 3710,-1629 3710,-3638z"/>
  <g id="_2165261374752">
   <g>
    <polygon class="fil1 str1" points="2362,1901 3176,2121 3208,2118 3238,2115 3266,2113 3293,2113 3319,2113 3342,2114 3365,2117 3386,2121 3406,2125 2649,1906 2624,1900 2598,1896 2570,1892 2540,1891 2509,1890 2475,1891 2439,1893 2402,1896 "/>
    <polygon class="fil1 str1" points="2649,1906 3406,2125 3424,2131 3442,2137 3458,2145 3474,2154 3488,2164 3502,2175 3515,2187 3527,2200 3539,2214 3550,2229 3560,2245 3571,2262 3580,2281 3590,2300 3600,2321 3609,2342 3618,2365 3628,2388 3637,2413 3647,2439 3657,2465 3667,2493 3678,2522 3700,2581 3723,2640 3745,2700 3768,2759 3791,2819 3815,2879 3838,2938 3862,2998 3886,3058 3910,3118 3934,3178 3958,3238 3982,3298 4007,3358 4031,3418 4056,3478 4080,3538 4105,3598 4130,3658 4155,3717 4179,3777 4204,3837 4229,3897 4254,3957 4278,4016 4303,4076 4327,4135 4352,4194 4376,4254 4400,4313 4424,4372 4448,4430 4469,4482 4490,4534 4510,4586 4530,4638 4550,4690 4570,4742 4590,4794 4610,4846 4629,4898 4649,4950 4668,5002 4688,5054 4707,5106 4727,5158 4746,5211 4766,5263 4786,5315 4806,5366 4826,5418 4846,5470 4867,5522 4887,5573 4908,5625 4929,5676 4951,5727 4973,5778 4995,5829 5018,5880 5040,5931 5064,5981 5088,6032 5112,6082 5127,6112 5142,6140 5156,6164 5170,6187 5184,6206 5197,6224 5209,6238 5222,6251 5234,6261 5246,6269 5258,6275 5269,6278 5281,6280 5292,6280 5303,6278 5314,6274 5326,6268 5337,6261 5348,6253 5359,6242 5370,6231 5382,6218 5394,6203 5406,6188 5418,6171 5430,6153 5443,6134 5456,6115 5469,6094 5483,6073 5497,6051 5512,6028 5573,5934 5634,5839 5696,5744 5758,5647 5820,5550 5882,5452 5944,5352 6005,5252 6065,5152 6124,5050 6182,4948 6238,4844 6293,4740 6346,4636 6396,4530 6445,4424 6491,4317 6534,4209 6574,4101 6611,3992 6645,3882 6675,3771 6702,3660 6724,3548 6742,3436 6756,3323 6765,3209 6770,3095 6769,2980 6763,2865 6752,2749 6735,2632 6732,2614 6728,2595 6725,2577 6721,2560 6718,2542 6714,2524 6710,2507 6706,2489 6702,2472 6698,2455 6693,2438 6689,2421 6684,2404 6679,2387 6675,2371 6669,2354 6664,2337 6659,2321 6654,2304 6648,2287 6642,2271 6637,2254 6631,2238 6624,2221 6618,2204 6612,2188 6605,2171 6599,2154 6592,2137 6585,2120 6578,2103 6570,2086 6605,1857 6614,1878 6623,1900 6632,1921 6640,1942 6649,1963 6657,1984 6665,2005 6673,2026 6680,2046 6688,2067 6695,2088 6702,2109 6709,2129 6716,2150 6722,2171 6729,2192 6735,2213 6741,2234 6747,2255 6753,2276 6759,2297 6764,2318 6769,2340 6775,2361 6780,2383 6785,2405 6789,2427 6794,2449 6798,2471 6803,2494 6807,2516 6811,2539 6832,2685 6846,2830 6854,2974 6854,3118 6849,3261 6837,3403 6820,3544 6797,3685 6769,3824 6736,3963 6698,4102 6656,4239 6610,4375 6559,4511 6505,4645 6448,4779 6387,4912 6324,5044 6258,5175 6190,5305 6119,5434 6047,5562 5973,5689 5898,5815 5822,5940 5745,6064 5667,6187 5590,6308 5512,6429 5435,6549 5358,6667 5282,6784 5264,6813 5246,6840 5229,6867 5212,6893 5196,6917 5180,6941 5164,6963 5149,6984 5134,7003 5120,7021 5105,7038 5091,7052 5077,7065 5063,7076 5049,7085 5035,7092 5021,7097 5007,7099 4993,7099 4979,7097 4964,7093 4950,7085 4935,7075 4919,7063 4904,7047 4888,7029 4872,7007 4855,6983 4837,6955 4819,6924 4801,6889 4782,6852 4752,6789 4722,6726 4693,6663 4664,6600 4636,6536 4608,6472 4581,6409 4554,6345 4527,6280 4501,6216 4475,6152 4450,6087 4424,6022 4399,5957 4374,5892 4350,5828 4325,5762 4300,5697 4276,5632 4252,5567 4227,5502 4203,5437 4179,5372 4154,5306 4129,5241 4105,5176 4080,5111 4055,5046 4030,4981 4004,4917 3978,4852 3952,4787 3922,4714 3892,4640 3862,4566 3832,4492 3801,4418 3770,4344 3740,4270 3709,4195 3678,4120 3647,4046 3616,3971 3585,3896 3554,3821 3523,3746 3493,3671 3462,3596 3431,3521 3400,3446 3370,3371 3339,3296 3309,3222 3279,3147 3249,3072 3219,2997 3190,2922 3160,2848 3131,2773 3102,2699 3074,2624 3045,2550 3017,2476 2990,2402 2976,2366 2963,2331 2951,2297 2939,2265 2927,2235 2915,2205 2903,2177 2892,2150 2880,2124 2868,2100 2855,2077 2842,2056 2829,2036 2815,2017 2801,1999 2785,1983 2769,1968 2752,1954 2734,1942 2715,1931 2694,1921 2672,1913 "/>
    <polygon class="fil1 str1" points="6605,1857 6570,2086 6556,2055 6542,2028 6528,2005 6513,1984 6499,1967 6485,1953 6471,1941 6457,1932 6443,1926 6430,1923 6416,1922 6402,1923 6388,1926 6375,1931 6361,1939 6347,1947 6334,1958 6320,1970 6307,1983 6293,1998 6280,2014 6266,2030 6253,2048 6239,2066 6226,2085 6213,2105 6199,2125 6186,2145 6173,2165 6159,2185 6146,2205 6132,2225 6058,2030 6074,2005 6091,1980 6108,1955 6124,1930 6141,1905 6158,1880 6175,1856 6191,1832 6208,1809 6225,1787 6242,1766 6259,1747 6276,1728 6292,1712 6309,1697 6326,1684 6343,1672 6360,1664 6377,1657 6395,1653 6412,1652 6429,1653 6446,1657 6464,1665 6481,1676 6499,1690 6516,1708 6534,1730 6551,1755 6569,1785 6587,1819 "/>
   </g>
   <path class="fil2 str2" d="M2362 1901c439,-57 481,108 628,501 293,788 644,1602 962,2385 280,689 503,1398 830,2065 207,422 301,240 500,-68 805,-1244 1794,-2687 1529,-4245 -42,-246 -108,-453 -206,-682 -192,-432 -369,-88 -547,173"/>
   <g>
    <polygon class="fil1 str1" points="2362,1901 2973,3067 3128,3438 3273,3786 3408,4110 3534,4412 3650,4692 3758,4952 3858,5191 3950,5412 4035,5614 4113,5799 4185,5967 4251,6119 4310,6257 4365,6380 4415,6489 4461,6586 4502,6672 4540,6746 4575,6810 4608,6865 4638,6911 4666,6950 4692,6981 4511,6794 4477,6754 4442,6706 4405,6648 4365,6580 4321,6499 4273,6407 4221,6300 4164,6179 4102,6042 4033,5888 3959,5716 3877,5526 3787,5316 3690,5085 3583,4832 3468,4556 3343,4257 3208,3932 3062,3582 2905,3205 2737,2799 2556,2365 "/>
    <polygon class="fil1 str1" points="4511,6794 4692,6981 4718,7007 4743,7027 4768,7043 4793,7055 4819,7065 4846,7072 4874,7078 4904,7084 4937,7091 4816,6930 4775,6923 4738,6915 4702,6907 4669,6898 4637,6886 4605,6871 4574,6851 4543,6826 "/>
   </g>
   <path class="fil2 str2" d="M2362 1901c2137,5115 2003,4940 2454,5029"/>
  </g>
 </g>
</svg>
